<?xml version="1.0" encoding="utf-8"?>
<!-- Generator: Adobe Illustrator 16.0.0, SVG Export Plug-In . SVG Version: 6.00 Build 0)  -->
<!DOCTYPE svg PUBLIC "-//W3C//DTD SVG 1.1//EN" "http://www.w3.org/Graphics/SVG/1.1/DTD/svg11.dtd">
<svg version="1.1" id="Layer_1" xmlns="http://www.w3.org/2000/svg" xmlns:xlink="http://www.w3.org/1999/xlink" x="0px" y="0px"
	 width="504px" height="504px" viewBox="0 0 504 504" enable-background="new 0 0 504 504" xml:space="preserve">
<g>
	<path fill="#537368" d="M192.254,199.082c-2.311,0.66-3.631,4.62-8.91,0C184.333,202.711,187.303,206.012,192.254,199.082z"/>
	<path fill="#537368" d="M191.428,209.181c-2.31,0.66-3.63,4.62-8.91,0C183.507,212.811,186.479,216.111,191.428,209.181z"/>
	<path fill="#537368" d="M189.119,213.768c-2.311,0.659-3.631,4.62-8.911,0C181.198,217.399,184.167,220.698,189.119,213.768z"/>
	<path fill="#537368" d="M191.84,206.349c-1.524,1.114-3.277,2.139-7.011-1.13c1.771,6.498,5.277,4.367,7.804,1.417
		c1.459,0.272,3.367-0.705,5.726-4.007c-2.309,0.659-3.63,4.62-8.911,0C189.875,204.197,190.673,205.702,191.84,206.349z"/>
	<path fill="#537368" d="M143.971,247.363c5.279-7.26,15.511-11.881,19.14-13.53c3.631-1.65,10.58-2.283,9.589-8.224
		c-13.737,7.631-25.247,13.775-30.528,19.715c-3.3,5.281-5.019,15.167-3.179,19.717c2.116,3.929,3.278,9.496,20.704,10.404
		l30.25-9.031c-0.341-1.59-0.603-3.208-0.826-4.839c-9.066,5.138-18.745,9.271-27.519,9.131
		C155.333,271.697,134.73,265.186,143.971,247.363z"/>
	<path fill="#537368" d="M158.369,259.706c4.95,2.97,6.922,3.104,24.413-6.468c1.411-1.036,3.44-2.477,5.844-4.176
		c0.432-7.319,2.095-14.306,4.778-20.762c-8.024,6.907-17.833,12.161-23.155,16.444C162.01,250.373,156.881,256.604,158.369,259.706
		z"/>
	<path fill="#537368" d="M184.168,217.926c0.989,3.629,3.96,6.931,8.911,0C190.77,218.586,189.448,222.545,184.168,217.926z"/>
	<path fill="#537368" d="M146.594,248.947c0.99,3.629,3.96,6.931,8.911,0C153.195,249.607,151.875,253.567,146.594,248.947z"/>
	<path fill="#537368" d="M193.079,208.652c0.991,3.631,3.96,6.931,8.911,0C199.679,209.312,198.358,213.272,193.079,208.652z"/>
	<path fill="#537368" d="M131.391,67.941l89.133,129.426c9.461-5.494,20.444-8.654,32.172-8.654
		c12.912,0,24.925,3.827,34.991,10.388L383.506,74.27c-2.929-3.137-5.238-6.944-6.652-11.295
		c-1.862-5.732-1.915-11.616-0.486-17.042c-36.356-21.859-78.925-34.439-124.436-34.439c-40.484,0-78.636,9.962-112.162,27.545
		c0.553,2.29,0.854,4.679,0.854,7.139C140.624,54.721,137.081,62.434,131.391,67.941z M263.923,141.504
		c0.846-0.034,1.627-0.528,2.342-1.481c0.715-0.952,1.249-2.44,1.604-4.461l3.9-22.287c0.049-0.283,0.079-0.562,0.092-0.833
		c0.01-0.272-0.01-0.577-0.061-0.915c-0.078-0.598-0.246-1.203-0.504-1.815c-0.26-0.611-0.619-1.159-1.083-1.643l14.147,2.477
		c-0.303,0.275-0.584,0.528-0.844,0.757s-0.5,0.452-0.721,0.669c-0.316,0.348-0.592,0.719-0.826,1.116s-0.404,0.897-0.51,1.5
		l-4.04,23.084c-0.056,0.32-0.099,0.678-0.132,1.074s-0.049,0.796-0.045,1.198c0.033,0.847,0.193,1.659,0.477,2.44
		s0.808,1.385,1.574,1.811L263.923,141.504z M298.112,151.122c0.033,0.015,0.061,0.018,0.086,0.008
		c0.022-0.01,0.059-0.023,0.105-0.043c0.605-0.131,1.185-0.293,1.738-0.486c0.553-0.193,0.998-0.453,1.334-0.778
		c0.107-0.071,0.191-0.153,0.252-0.245c0.059-0.093,0.109-0.188,0.152-0.287c0.014-0.032,0.029-0.094,0.049-0.184
		s0.043-0.168,0.072-0.234c0.01-0.113,0.023-0.215,0.043-0.305c0.018-0.09,0.019-0.158,0-0.206l0.545-6.466l-9.426-4.051
		l-3.996,4.101c-0.014,0.033-0.047,0.088-0.1,0.163s-0.092,0.146-0.119,0.213l-0.021,0.049c-0.029,0.066-0.07,0.138-0.121,0.213
		c-0.053,0.076-0.086,0.13-0.1,0.162c-0.057,0.133-0.104,0.261-0.135,0.383c-0.035,0.123-0.055,0.241-0.064,0.354
		c-0.129,0.573-0.104,1.2,0.072,1.883c0.176,0.685,0.477,1.352,0.901,2.004l-11.211-4.819c0.878-0.13,1.757-0.42,2.636-0.865
		c0.875-0.445,1.643-0.978,2.301-1.597c0.199-0.188,0.39-0.381,0.572-0.577c0.182-0.195,0.34-0.402,0.473-0.62l13.764-15.478
		c0.18-0.235,0.377-0.464,0.59-0.687c0.213-0.222,0.426-0.444,0.639-0.666c0.5-0.528,0.979-1.048,1.434-1.558
		c0.455-0.511,0.788-1.014,1.002-1.51c0.084-0.198,0.148-0.396,0.195-0.592c0.045-0.195,0.078-0.408,0.096-0.635
		c0.023-0.421-0.047-0.892-0.214-1.415c-0.168-0.521-0.469-1.054-0.902-1.593l12.452,5.353l-1.119,31.729
		c-0.182,0.784-0.133,1.608,0.143,2.472c0.275,0.862,0.621,1.677,1.036,2.443c0.108,0.203,0.212,0.395,0.312,0.574
		c0.098,0.18,0.202,0.371,0.312,0.575L298.112,151.122z M309.41,72.644c0.139-0.063,0.249-0.128,0.331-0.194
		c0.081-0.065,0.174-0.137,0.28-0.213c0.013-0.033,0.026-0.048,0.044-0.042c0.016,0.007,0.031-0.007,0.044-0.041
		c0.281-0.241,0.665-0.425,1.153-0.553c0.488-0.126,1.374,0.048,2.657,0.521l6.23,2.303c0.304,0.112,0.618,0.219,0.946,0.321
		c0.326,0.101,0.665,0.197,1.016,0.288c0.7,0.183,1.41,0.339,2.13,0.471c0.719,0.132,1.356,0.223,1.912,0.274l-4.779,3.588
		c-0.093,0.043-0.169,0.092-0.228,0.146s-0.134,0.104-0.227,0.146c-0.465,0.326-0.977,0.541-1.532,0.643
		c-0.556,0.103-1.407-0.06-2.556-0.484l-6.18-2.283c-0.742-0.274-1.469-0.465-2.177-0.573s-1.415-0.196-2.119-0.265
		c-0.261-0.02-0.53-0.043-0.809-0.07c-0.278-0.024-0.565-0.054-0.86-0.086c-0.068-0.025-0.154-0.048-0.262-0.068
		c-0.108-0.021-0.219-0.032-0.333-0.037L309.41,72.644z M241,75.869c0.656-0.733,1.179-1.507,1.569-2.322
		c0.117-0.247,0.224-0.496,0.324-0.745c0.098-0.247,0.171-0.498,0.216-0.748l7.231-19.411c0.082-0.285,0.184-0.569,0.301-0.854
		c0.119-0.283,0.237-0.566,0.355-0.852c0.275-0.674,0.533-1.331,0.773-1.972c0.238-0.64,0.367-1.229,0.387-1.77
		c0.008-0.215-0.004-0.422-0.031-0.622c-0.029-0.199-0.076-0.408-0.14-0.626c-0.13-0.401-0.368-0.814-0.712-1.241
		c-0.346-0.427-0.818-0.813-1.418-1.159l13.545,0.484l10.439,29.984c0.115,0.797,0.458,1.548,1.026,2.252
		c0.57,0.705,1.187,1.34,1.851,1.903c0.174,0.151,0.342,0.292,0.499,0.423c0.123,0.104,0.255,0.217,0.388,0.331
		c0.63-0.437,1.116-0.915,1.428-1.445c0.469-0.801,0.834-1.799,1.095-2.995l4.638-21.261c0.43-1.97,0.479-3.424,0.149-4.361
		s-0.816-1.789-1.46-2.557c-0.035-0.008-0.066-0.032-0.092-0.076l15.246,3.325c-1.411,0.725-2.352,1.698-2.821,2.923
		c-0.47,1.224-0.907,2.768-1.313,4.632l-4.27,19.573c0.132,0.066,0.276,0.125,0.431,0.177c0.155,0.053,0.315,0.115,0.484,0.188
		c0.469,0.213,1.004,0.422,1.604,0.626c0.6,0.206,1.217,0.376,1.85,0.515c0.246,0.054,0.504,0.101,0.771,0.141
		c0.269,0.04,0.542,0.09,0.823,0.151c1.396,0.194,2.732,0.229,4.014,0.103c1.279-0.127,2.211-0.513,2.794-1.16l-3.649,7.107
		l-22.792-4.971c0.353-0.173,0.664-0.358,0.954-0.55l-16.936-0.605c0.036,0.001,0.063-0.006,0.082-0.023s0.047-0.044,0.084-0.078
		c0.518-0.342,0.999-0.703,1.443-1.084c0.446-0.38,0.768-0.783,0.963-1.208c0.076-0.105,0.124-0.212,0.146-0.319
		c0.022-0.106,0.035-0.215,0.039-0.323c0.001-0.035-0.006-0.099-0.021-0.189c-0.015-0.09-0.02-0.172-0.018-0.244
		c-0.031-0.108-0.056-0.208-0.07-0.299c-0.016-0.091-0.04-0.155-0.074-0.192l-1.83-6.226l-10.254-0.366l-2.242,5.27
		c-0.001,0.036-0.013,0.1-0.034,0.188c-0.022,0.09-0.033,0.171-0.036,0.242l-0.002,0.055c-0.002,0.071-0.015,0.152-0.036,0.241
		c-0.022,0.09-0.033,0.152-0.034,0.188c-0.005,0.145-0.002,0.28,0.012,0.406c0.014,0.127,0.036,0.244,0.068,0.354
		c0.087,0.58,0.337,1.156,0.749,1.729c0.411,0.573,0.935,1.087,1.565,1.542l-12.196-0.436C239.628,77.188,240.342,76.601,241,75.869
		z M206.846,51.228c3.587-3.115,7.759-5.07,12.518-5.864c0.283-0.047,0.576-0.096,0.879-0.146c0.301-0.05,0.597-0.08,0.888-0.092
		c1.035-0.136,2.061-0.225,3.076-0.267c1.014-0.041,1.995-0.067,2.942-0.08c0.178-0.03,0.339-0.048,0.483-0.054
		s0.292-0.002,0.439,0.009l1.208,7.244c-0.236-0.106-0.5-0.208-0.79-0.306c-0.29-0.097-0.571-0.196-0.844-0.297
		c-1.041-0.337-2.209-0.607-3.502-0.813c-1.293-0.204-2.721-0.176-4.283,0.084l-0.32,0.053c-2.557,0.426-4.373,2.007-5.45,4.74
		c-1.077,2.735-1.364,5.611-0.86,8.629c0.018,0.106,0.036,0.222,0.057,0.346c0.021,0.125,0.04,0.24,0.059,0.346
		c0.615,2.818,1.951,5.306,4.008,7.462c2.057,2.157,4.801,3.133,8.234,2.925c0.07-0.012,0.15-0.025,0.239-0.04
		c0.088-0.015,0.187-0.031,0.293-0.049c0.076,0.023,0.159,0.027,0.248,0.013s0.168-0.028,0.24-0.04
		c0.567-0.095,1.147-0.227,1.74-0.399c0.591-0.171,1.177-0.378,1.757-0.622c1.024-0.426,2.021-0.902,2.992-1.429
		c0.971-0.526,1.85-1.056,2.637-1.589c0.26-0.188,0.512-0.377,0.755-0.563c0.242-0.186,0.476-0.371,0.701-0.555l-1.119,8.07
		c-1.101,0.402-2.276,0.79-3.528,1.163s-2.526,0.722-3.822,1.047c-0.426,0.071-0.842,0.149-1.247,0.235
		c-0.405,0.085-0.804,0.161-1.194,0.226c-0.106,0.018-0.222,0.037-0.346,0.058c-0.125,0.021-0.24,0.04-0.347,0.058
		c-4.67,0.669-9.189,0.155-13.56-1.544c-4.371-1.699-7.377-5.824-9.016-12.376C201.98,59.539,203.259,54.344,206.846,51.228z
		 M215.075,111.42l19.432,25.106c0.362,0.718,0.926,1.322,1.689,1.808c0.765,0.487,1.551,0.893,2.36,1.216
		c0.194,0.08,0.377,0.153,0.554,0.222l-1.68-6.993c0.362,0.212,0.796,0.433,1.303,0.662c0.507,0.229,1.066,0.467,1.682,0.712
		c0.687,0.281,1.418,0.553,2.195,0.815c0.776,0.262,1.562,0.497,2.355,0.706c0.759,0.208,1.516,0.372,2.273,0.49
		c0.757,0.119,1.477,0.174,2.161,0.167c0.863-0.008,1.672-0.151,2.426-0.429c0.754-0.277,1.307-0.706,1.661-1.286
		c0.07-0.108,0.141-0.226,0.213-0.353c0.069-0.126,0.123-0.262,0.158-0.407c0.069-0.18,0.121-0.37,0.156-0.568
		c0.033-0.198,0.05-0.369,0.049-0.514c-0.011-1.007-0.606-1.983-1.785-2.925c-1.179-0.941-2.744-1.799-4.696-2.571
		c-0.507-0.211-0.985-0.431-1.438-0.661c-0.453-0.229-0.896-0.45-1.33-0.662c-2.353-1.272-4.139-2.613-5.358-4.023
		c-1.221-1.41-1.841-3.194-1.862-5.354c-0.001-0.072,0.007-0.144,0.024-0.217c0.017-0.072,0.025-0.162,0.024-0.27l-0.001-0.054
		c-0.001-0.108,0.007-0.198,0.024-0.271c0.017-0.072,0.025-0.144,0.025-0.216c0.15-2.881,1.28-5.062,3.39-6.541
		s4.422-2.429,6.938-2.851c0.504-0.077,1.025-0.136,1.564-0.178c0.539-0.041,1.061-0.064,1.564-0.07
		c0.684-0.007,1.504,0.039,2.459,0.138c0.955,0.098,1.938,0.25,2.948,0.457c0.541,0.103,1.072,0.232,1.597,0.389
		c0.523,0.157,1.038,0.341,1.545,0.551l0.062,6.155c-0.254-0.105-0.534-0.219-0.841-0.342c-0.308-0.123-0.623-0.237-0.948-0.342
		c-0.398-0.176-0.813-0.343-1.248-0.5c-0.433-0.158-0.885-0.289-1.354-0.392c-0.578-0.21-1.165-0.366-1.76-0.468
		s-1.162-0.15-1.702-0.145c-0.756,0.007-1.457,0.159-2.101,0.453c-0.646,0.295-1.163,0.768-1.553,1.419
		c0.001,0.036-0.018,0.081-0.053,0.136c-0.035,0.054-0.053,0.1-0.052,0.135v0.054c-0.106,0.217-0.193,0.434-0.264,0.651
		c-0.07,0.216-0.104,0.397-0.103,0.541c0.007,0.685,0.382,1.319,1.126,1.906c0.743,0.587,1.802,1.108,3.175,1.562
		c0.65,0.317,1.41,0.679,2.278,1.084s1.755,0.873,2.661,1.404c1.772,0.991,3.397,2.297,4.871,3.92
		c1.475,1.624,2.226,3.713,2.251,6.268l0.011,1.134c-0.258,3.063-1.423,5.306-3.497,6.731c-2.074,1.424-4.315,2.33-6.723,2.713
		c-0.791,0.152-1.572,0.259-2.347,0.321c-0.773,0.062-1.519,0.096-2.239,0.103c-1.548,0.016-2.943-0.078-4.188-0.282
		s-2.462-0.479-3.653-0.828c-0.397-0.104-0.785-0.226-1.165-0.366c-0.3-0.111-0.61-0.222-0.921-0.333l-16.116,4.773
		c0.034-0.01,0.058-0.025,0.07-0.049c0.012-0.022,0.03-0.056,0.055-0.101c0.381-0.487,0.723-0.983,1.023-1.486
		c0.303-0.502,0.477-0.986,0.527-1.451c0.039-0.124,0.051-0.24,0.038-0.349c-0.014-0.109-0.036-0.214-0.066-0.318
		c-0.01-0.034-0.036-0.093-0.079-0.174s-0.074-0.156-0.096-0.225c-0.064-0.093-0.119-0.18-0.162-0.262
		c-0.043-0.08-0.087-0.134-0.131-0.158l-3.716-5.319l-9.837,2.914l-0.449,5.708c0.01,0.035,0.02,0.098,0.027,0.189
		c0.008,0.092,0.022,0.172,0.043,0.241l0.016,0.052c0.021,0.07,0.035,0.15,0.043,0.24c0.008,0.093,0.019,0.155,0.028,0.189
		c0.041,0.138,0.087,0.266,0.141,0.38c0.053,0.117,0.112,0.221,0.178,0.314c0.267,0.521,0.687,0.988,1.259,1.4
		c0.574,0.413,1.231,0.733,1.977,0.964l-11.701,3.466c0.592-0.663,1.081-1.447,1.471-2.351c0.39-0.903,0.64-1.803,0.749-2.7
		c0.032-0.271,0.056-0.542,0.07-0.809c0.015-0.267,0.003-0.527-0.033-0.779l0.683-20.701c-0.014-0.296-0.008-0.598,0.014-0.905
		c0.021-0.307,0.043-0.613,0.064-0.92c0.047-0.726,0.083-1.432,0.105-2.115c0.023-0.683-0.041-1.283-0.195-1.801
		c-0.061-0.207-0.138-0.4-0.229-0.58c-0.09-0.179-0.201-0.363-0.331-0.549c-0.251-0.339-0.608-0.655-1.069-0.951
		c-0.463-0.293-1.034-0.51-1.713-0.647L215.075,111.42z"/>
	<path fill="#537368" d="M189.447,213.355c0.99,3.63,3.961,6.931,8.911,0C196.049,214.015,194.729,217.975,189.447,213.355z"/>
	<path fill="#537368" d="M80.392,178.618c-4.002-0.524-3.859,1.238-4.049,1.858c-0.191,0.62,0.808,2.335,1.571,2.859
		c0.763,0.524,2.716,0.048,3.573-1.001C82.345,181.286,81.773,179.809,80.392,178.618z"/>
	<path fill="#537368" d="M178.228,222.348c0.991,3.63,3.96,6.932,8.911,0C184.828,223.009,183.507,226.969,178.228,222.348z"/>
	<path fill="#537368" d="M428.595,191.199c-0.691-0.467-2.864-1.074-3.97-1.032s-2.064,0.399-2.005,1.158
		c-0.243,1.847-0.896,3.343-1.416,4.644c-0.446,2.57-2.011,4.672-1.926,6.884c1.086,2.96,1.861,2.982,2.913,3.551
		c2.34,0.575,2.034-0.565,1.693-1.442c-0.933-1.277-0.546-2.379-0.546-2.379c0.439-1.714,3.61-7.038,4.492-8.237
		c-0.155-1.255-0.042-1.106,0.721-1.596C429.494,192.311,429.284,191.667,428.595,191.199z"/>
	<path fill="#537368" d="M417.438,196.868c0.037-0.693,0.154-0.973-0.283-2.346c0.058-3.694,3.203-5.159,3.965-5.648
		c1.441-0.965,2.009-2.017,2.18-2.907c0.901-1.545,2.059-1.768,3.219-2.421c3.783-0.816,7.587-4.636,8.323-6.15
		c2.453-1.929,2.298-3.185,1.927-4.655c-0.593-2.627-3.927-4.811-4.367-5.754c-0.287-1.487,0.425-1.796,0.298-2.457
		c-0.587-1.258-1.927-0.656-2.146-0.014c-1.128,3.474,0.078,5.727,0.828,6.952c1.836,1.959,1.007,2.547,0.454,3.682
		c-1.188,2.715-5.988,4.927-7.03,5.3c-5.921,2.172-7.099,5.398-7.713,6.202c-1.32,2.483-1.47,2.598-2.299,3.186
		c-0.646,0.639-1.285,2.219-1.239,2.896c0.228,2.954,1.419,5.124,1.975,5.787C416.35,199.22,417.249,197.675,417.438,196.868z"/>
	<path fill="#537368" d="M434.479,154.675c1.51,1.165,0.047,0.248,0.047,0.248c0.703,0.978,1.286,2.664,0.769,3.536
		c-0.516,0.87-1.819,0.78-2.22,1.371c-0.572,1.91,1.012,1.69,1.886,1.779c0.811-0.244,0.698-0.822,1.344-1.031
		c0.595-0.029,3.117,0.168,3.813-0.223s0.353-0.839,0.353-0.839c0.435-0.855-0.606-3.139-1.493-3.739
		c-0.885-1.029-3.812-2.434-4.435-2.999c-1.207-2.251-1.42-2.468-2.603-3.268c-0.104,0.792-0.635,1.151-0.46,2.06
		C432.059,153.685,432.969,153.509,434.479,154.675z"/>
	<path fill="#537368" d="M455.119,174.594c0.626,0.135,2.92,0.036,3.623,1.014c0.817,1.136-0.094,1.731,0.13,2.888
		c-0.369,0.756-1.014,0.966-1.17,2.368c-0.17,0.46,0.12,3.791,1.601,2.519c0.513-0.442,2.44-2.443,4.262-0.996
		c1.088,0.305,2.018-0.646,2.24-1.717c-0.31-0.712-0.094-0.925-1.097-1.674c-1.746-0.176-1.266-3.01-3.629-5.04
		c-1.067-0.65-2.529-1.568-4.844-1.121c-0.512,0.013-1.14,0.307-1.539,0.898C454.33,174.061,454.493,174.457,455.119,174.594z"/>
	<polygon fill="#537368" points="217.269,130.425 210.864,121.734 210.952,132.296 	"/>
	<path fill="#537368" d="M456.047,188.552c-1.227-1.818-1.712-0.182-1.395,0.699c2.025,4.836,1.945,8.192,1.875,10.091
		c-0.09,1.046-0.083,0.702-0.11,1.307c0.819,1.983,1.693,1.986,2.692,1.878c2.198-0.681,0.968-4.042,0.896-4.798
		C459.59,195.58,456.48,189.67,456.047,188.552z"/>
	<path fill="#537368" d="M464.994,196.421c-0.362-1.13-1.484-6.569-3.635-8.638c-0.495-0.675-0.912-1.708-1.646-1.738
		c0,0-1.44-0.247-1.186,0.657c0.231,0.812,0.085,0.635,1.124,1.667c0.746,1.228,1.047,3.913,1.295,5.577
		c0.249,1.667,0.722,4.487,0.837,5.837c0.322,0.537,0.552,1.349,1.691,1.216c0.881-0.342,1.995-0.986,2.531-1.604
		c0.232-0.301,0.463-1.375-0.055-1.789C465.521,197.261,465.278,197.136,464.994,196.421z"/>
	<path fill="#537368" d="M434.827,190.201c1.095,1.673,1.444,1.263,2.172,1.037c0.846-0.506,2.762-0.79,4.165-1.061
		c2.195-0.168,4.963,0.412,7.728,1.42c2.538,0.71,1.873,0.375,1.103-0.504c-1.797-2.652-4.777-3.448-5.403-3.584
		c-0.625-0.136-0.761,0.062-1.371,0.008c-2.195,0.167-4.134-1.001-5.141-0.892C435.615,187.187,434.854,188.567,434.827,190.201z"/>
	<polygon fill="#537368" points="302.737,136.125 303.372,125.347 296.685,133.522 	"/>
	<polygon fill="#537368" points="256.128,52.471 252.851,62.512 259.435,62.748 	"/>
	<path fill="#537368" d="M391.442,80.351l-92.4,120.379l3.185,11.363c3.451,4.183,6.378,8.811,8.69,13.784
		c-1.207-11.043-2.294-26.763-2.294-26.763s2.032-2.791,2.846-3.462c0,0,0.718,1.06,1.046,1.425
		c1.055,1.178,1.685,2.074,2.709,6.932c1.024,4.857,3.252,7.512,3.704,8.966c0.452,1.456,1.365,3.078,1.406,4.184
		c1.237,5.074,4.278,9.285,6.237,10.106c1.297,0.949,0.66-0.128,0.078-1.815c-0.801-1.044-0.901-1.111-1.737-1.892
		c-0.836-0.781-0.799-1.474-0.799-1.474c-0.22-1.585-0.67-3.469-1.681-5.158c-2.003-4.155-2.512-9.455-2.165-12.092
		c1.358-4.456-1.39-12.071-1.772-14.053l2.318-3.532c-0.186,3.034,1.991,8.098,2.608,9.521c1.354,4.793,6.923,8.773,7.937,10.035
		c1.256,2.07,1.965,2.19,2.541,2.508c2.986,2.592,5.204,9.191,5.471,11.024c1.624,3.97,2.422,0.56,2.297-0.53
		c0.005-3.085-3.021-9.87-4.201-13.325c-1.183-3.456-4.477-6.762-7.333-11.351c-2.859-4.589-3.718-9.478-4.146-12.138
		c0.948-0.869,2.468-1.42,3.741-1.922c0.638,3.304,2.787,5.545,4.164,6.908c-1.042-2.284-0.644-7.76-0.717-9.03
		c0,0,5.501-3.462,6.806-3.801c0.33,2.593-0.945,10.636-0.42,13.791c0.64,2.876,5.737,10.631,5.737,10.631
		c1.17,2.944,1.256,4.727,1.452,7.517c0.196,2.789-1.396,1.64-0.361,4.783c1.035,3.141,2.884,2.955,2.896,3.468
		c0.015,0.511,0.358,0.957,1.028,1.771c0.671,0.813,1.214,0.964,2.204,1.202c0.988,0.238,1.43,0.752,2.053,1.317
		c0.623,0.564,1.302,0.091,1.289-0.421c0.721-1.594,0.268-3.05-0.645-4.673c-4.206-7.585-1.972-8.873-2.227-10.194
		c-0.556-3.32-2.669-5.826-4.037-8.475c-2.207-3.001-1.777-5.655-1.833-7.271c1.142-5.191-0.375-13.037-1.011-16.771l4.73-1.685
		c0.104,1.437,0.822,5.154,1.563,8.095c0.692,2.695,5.066,9.818,5.151,12.029c0.938,5.303,0.957,7.614,1.027,9.313
		c1.768,4.714,3.843,5.255,5.601,6.372c3.306,1.59,4.175-0.121,2.836-2.175c-1.474-1.858-1.451-2.633-1.912-7.685
		c-0.463-5.051-1.787-7.024-2.916-8.433c-5.595-4.575-6.974-15.704-8.215-17.693c-1.241-1.987,0,0,0.299-0.228
		c0.297-0.229,5.079-2.096,6.587-3.158c-0.725,2.454,0.237,1.668,0.259,3.12c0.942,2.216,0.95,3.587,0.895,4.626
		c-0.393,1.961-1.274,3.159-0.857,4.877c1.682,7.816,5.134,9.72,7.283,11.533c3.122,1.967,2.759-0.363,2.138-1.356
		c-1.213-1.395-2.1-4.221-2.188-6.004c-1.992-8.098-0.872-15.17-0.821-18.007l3.665-0.536c0,0,0.737,1.143,0.796,1.903
		c1.041,2.283,1.021,3.058,0.91,4.708c-0.744,2.8-0.884,6.511-0.5,8.494c1.207,6.707,3.294,8.189,3.294,8.189
		c1.87,1.695,2.495-0.396,2.22-1.371c-1.707-8.839,0.236-10.757,1.139-12.302c1.964-2.693,1.179-3.654,0.956-4.812
		c-0.737-2.591,0.236-3.319,0.688-5.036l4.587,0.418c-0.985,1.99-0.636,3.807-0.529,5.242c0.848,4.379-0.515,7.983-0.515,7.983
		c-1.683,5.038-0.683,8.443-0.278,9.651c0.405,1.207,0.834,1.209,2.137,1.3c0,0,3.388-3.309,3.625-4.299
		c0.236-0.988,0.241-1.417,0.129-1.995c-1.568-4.151,2.193-15.249,3.22-17.918c0.532,0.062,1.067,0.129,1.603,0.2
		c-0.473,2.712,1.668,11.379,1.962,12.468l0.187,1.42c2.185,4.206,2.763,1.437,3.065,0.779c0.266-0.395,0.726-0.226,1.175-0.571
		c0.328-2.29-0.63-1.934-1.188-2.597c-2.258-5.476-0.708-10.317,0.135-10.394c-0.805,6.925,1.963,10.16,1.963,10.16
		c1.184,3.027,2.086,6.366,2.358,7.341c0.773,3.108,1.698,0.358,1.407-0.7l-0.271-0.975c-0.619-1.423-1.965-2.535-1.712-3.44
		c0.93-3.178,0.763-5.373-0.03-7.705c-1.882-4.863,1.631-9.827,1.82-11.063c0.19-1.236,0.149-0.113,0.445,0.086
		c0.296,0.199,1.82,1.876,1.751,4.631c0.17,1.767,0.83,4.295,1.763,5.572c0.085,2.212,1.585,2.436,2.354,3.315
		c2.237,3.595,3.365,0.121,3.208-1.133c-0.323-1.224,0.272-1.252,0.691-2.19c1.712-4.444-1.228-6.789-1.927-8.197
		c-0.566-1.218-0.835-3.822-0.83-5.874c0.979-1.42,2.349-2.319,4.531-1.789c0.122,0.749,0.333,1.822,0.654,2.709
		c0.373,1.028,1.939,1.168,2.178,2.407c0.478,2.907-0.14,6.368,0.116,7.689c1.356,4.365,3.374,3.718,3.378,5.517
		c0.988,2.894,1.721,1.809,1.146-1.163c-0.917-3.423,0.33-4.948,0.33-4.948c0.776-2.635,0.124-3.795-0.562-4.691
		c-1.295-1.735-0.758-3.331-0.418-4.44c0.964,0.375,1.887,0.62,2.693,0.617c-0.339,0.6-1.05,1.592-0.912,2.017
		c0.211,0.646,2.328-0.364,2.529-0.66c1.38-1.722-0.395-5.149-0.87-5.829c-0.762,0.947-0.387,2.042-0.238,2.978
		c-1.121-4.297-2.315-12.261-3.295-15.749c0,0-1.373-1.792,1.055,0.138c2.429,1.931-0.544,2.505,4.985,4.52
		c2.035,1.665,10.416,5.368,12.834,9.012c0,0,0.383,1.983,2.099,1.993c1.716,0.012,2.057-1.767,3.367-0.306
		c1.31,1.46,2.237,0.938,9.058,7.847c2.62,2.92,2.962,3.932,6.231,5.65c3.814,2.005,5.423,5.893,5.515,9.475
		c-0.859,2.65-0.851,4.02-0.01,6.599c0.84,2.58,3.615,7.185,5.941,9.477c0.257,1.321,1.289,2.236-1.864,2.759
		c-2.324,0.386-3.698,0.372-4.435,1.885c-0.735,1.513-2.806,4.998-4.724,5.711l-0.951,3.953l-0.637-3.303l-2.707,0.181l-0.747,3.227
		l-0.511-2.643l-1.972-1.333l-1.536,2.696c-0.29-2.688,0.179-6.131-1.134-8.825c-0.009,0.026-0.019,0.053-0.028,0.08
		c-0.014,0.037-0.025,0.067-0.034,0.092c-0.008,0.022-0.014,0.039-0.022,0.062l0.69,3.57c0,0-5.888,3.606-7.947,3.592
		c2.547-1.726,6.45-4.949,7.257-7.162c0,0,0.01-0.026,0.022-0.062c0.013-0.033,0.022-0.061,0.034-0.092
		c0.009-0.025,0.019-0.051,0.028-0.08c-0.653-1.343-1.743-2.503-3.604-3.284c-5.593-2.346-7.693-4.34-10.934-3.371
		c-3.239,0.968-7.14,2.064-6.706,6.094c0.437,4.027-2.078,5.199,1.725,8.92c3.804,3.721,3.282,2.793,5.85,3.669l1.577,1.066
		c0.255,1.321-0.203,0.723-0.214,2.44c-0.012,1.717,1.171,2.516,1.171,2.516l-2.834-0.481c0.318,1.653,2.034,1.664,0.713,1.919
		c-1.323,0.256-2.771-0.15-2.771-0.15c0.586,1.258-0.544,2.505-0.544,2.505l-0.588-1.258c-0.862,0.851-2.45,1.501-2.45,1.501
		l-2.108-0.277c0,0-0.668,1.409,0.517,3.115c-0.744-0.805-1.598-1.648-2.309-1.742c-1.055-0.14-2.314,0.446-2.302-1.269
		c0.012-1.716,1.344-3.688-2.331-6.748c-1.896-2.718-1.375-1.791-2.279-4.701c-1.578-1.067-4.199-3.987-7.588-0.247
		c-1.067,1.576-4.138,6.968-4.086,9.014s-2.487,6.65-2.487,6.65l-1.236,2.949l-3.273-4.563c0,0-1.511-2.144-0.585-1.258
		c-1.788-1.711,0.913,1.623-0.894-4.626c-0.379-1.311-2.805-3.428-4.21-3.614c-1.408-0.184-1.578-1.065-2.757-2.437
		c-1.178-1.372-5.326-6.283-7.742-6.959c-1.449-0.406-2.721-1.074-2.296,1.129c0,0,2.827,5.167,4.312,6.936l0.745,0.313
		c0.959,1.413,0.772,2.821,1.683,5.158c1.129,2.297,1.52,3.135,3.146,3.277l0.39,0.838c-2.793,3.282-12.53,12.018-6.296,20.639
		c0,0,0.376,3.126,1.977,0.76c0.846-1.534,0.662-7.211,7.328-10.555c0,0,3.404-2.486,5.522-3.351c2.117-0.865,6.06,1.799,6.06,1.799
		c-1.295,2.764-3.526,7.764-1.973,12.263c0.383,1.983,1.306,2.033,2.223,3.227c0.916,1.193,0.967,0.27,1.221,1.591
		c0.256,1.322,0.959,1.415,1.229,0.448c0,0,0.944,3.703,0.661-0.127s0.813-12.437,6.318-13.502c0.924,0.051,6.125,0.438,6.125,0.438
		c-0.229,1.186-2.629,5.914-1.416,8.65c-1.676,0.781-2.464,0.248-2.317,4.56c0.148,4.314,0.666,5.813,0.837,6.694
		c0.61,0.797,0.873,0.973,1.32-0.256c0.983-2.017,1.943-7.688,3.442-8.205c1.5-0.518,2.864-0.552,2.871-1.697
		c0.008-1.144-0.047-6.161-0.047-6.161l0.583-1.711v-0.282c0.132,0.088,0.274,0.169,0.397,0.262c1.107,2.186,3.056,6.951,2.936,15.2
		c0.18,2.707-3.662,7.293,4.107,17.714c5.968,8.007,6.967,6.868,8.256,15.466c-1.271,0.109-2.449,0.99-3.545,2.705l-0.249,0.369
		l0.108,0.434c0.441,1.762,0.775,2.166,1.791,2.736c0.195,0.133,0.385,0.32,0.57,0.537c-0.493,0.137-1.099,0.275-1.868,0.424
		c0,0-0.313,0.123-0.948,0.252c0.065-3.145-0.864-5.686-1.268-6.385c-0.554-1.168-1.58-1.836-2.825-1.836
		c-1.861,0-3.665,1.467-3.807,3.059c-0.085,0.344-0.218,1.18,0.178,2.09l0.104,0.184c0.565,0.789,0.918,1.838,1.153,2.986
		c-1.275-0.15-2.731-0.406-4.352-0.795c0.492-3.861,0.183-7.197,0.174-7.227c-0.74-3.523-2.682-3.902-3.482-3.902
		c-1.031,0-2.058,0.57-2.745,1.527c-0.706,0.982-0.916,2.199-0.587,3.168c0.364,1.545,0.622,3.094,0.805,4.586
		c-1.328-0.621-2.625-1.592-3.809-3.855c-1.631-3.111-3.194-5.893-3.098-10.711c1.269-2.301,1.622-5.795,1.048-8.771
		c-0.311-1.605-0.23-1.189-0.211-1.09c-0.015-0.076-0.093-0.478-0.364-1.883c-0.765-3.965,1.026-5.34-1.799-7.535
		c-2.822-2.197-5.315-4.458-12.712-3.714c-7.396,0.742-17.68-1.04-23.906,2.219c-0.056,0.552-0.13,1.241-0.218,2.041l0.1-1.248
		l-1.181,0.647c-0.451,0.247-0.927,0.528-1.4,0.787l-6.328,0.715l-0.587-0.059c0.461,0.385,0.876,0.657,1.232,0.793l3.113-0.602
		c-2.979,4.68-6.805,8.49-9.45,9.938c-1.262,0.499-4.227,1.74-1.782,2.702c1.882,0.305,7.098,0.473,15.463-6.316
		c-0.087,0.785-0.175,1.595-0.265,2.428c-0.232,0.939-0.482,1.914-0.563,2.586c-1.072,1.545-8.069,7.684-11.154,9.756
		c-0.724,0.779-4.17,3.244-0.22,4.15c3.948,0.906,8.194-1.006,10.327-2.365l-5.625,8.1l5.257,1.471
		c-0.012,0.301-0.021,0.592-0.032,0.885l84.086,29.74c2.079-3.76,4.989-7.137,8.695-9.83c4.813-3.498,10.313-5.363,15.842-5.717
		c3.846-17.125,5.888-34.932,5.888-53.216c0-67.985-28.063-129.406-73.224-173.344c-1.727,0.973-3.574,1.791-5.531,2.427
		C406.886,85.067,398.444,84.074,391.442,80.351z M429.834,298.482c0.011-3.127-0.191-7.715-1.282-12.322
		c-0.15-0.447-0.043-0.99,0.288-1.449c0.303-0.422,0.742-0.693,1.118-0.693c0.648,0,1.218,0.863,1.515,2.27
		C431.483,286.371,432.066,293.588,429.834,298.482z M440.01,300.195c0.08-3.355-0.021-7.654-1.843-10.307
		c-0.135-0.383-0.041-0.725-0.042-0.725l0.053-0.293c0.013-0.459,0.913-1.248,1.812-1.248c0.478,0,0.805,0.229,1.027,0.717
		l0.068,0.125C441.123,288.531,443.84,294.801,440.01,300.195z M451.241,299.496c-0.386-3.217-1.74-7.141-3.79-8.529l-0.153-0.09
		c-0.433-0.244-0.507-0.287-0.709-1.049c0.83-1.203,1.489-1.465,1.905-1.465c0.448,0,0.944,0.291,1.432,0.814
		C450.433,289.805,454.294,294.844,451.241,299.496z"/>
	<path fill="#537368" d="M349.937,270.668c-2.26,0.754-5.597,3.461-8.015,2.49c0.577-0.313,1.347-0.836,2.382-1.668
		c5.341-4.287,9.033-4.575,8.783-6.756c1.658-1.176,6.738-5.928,6.738-5.928c3.229,0.747,11.979-0.086,11.979-0.086l1.161,0.117
		c-4.561-3.808-13.683-18.8-16.637-25.233l-1.151-0.634c0.244,3.037,3.744,22.925,4.195,24.38c0.452,1.455-1.595,1.508-1.595,1.508
		c-3.031-0.614-16.697-4.83-23.059-20.907c-0.86-0.007-1.387-0.076-1.387-0.076c0.469,4.194,4.652,15.21,6.059,17.165
		c1.405,1.957-1.881,0.021-1.881,0.021c1.007,2.547,5.514,9.871,7.349,11.433c-2.089,1.604-8.347,4.698-10.253,3.694
		c-3.021-2.328-12.351-18.692-13.946-32.266l-2.012,0.218c0,0-0.08-3.069-0.529-0.07c-0.423,2.839,2.855,21.307,6.413,33.844
		c-3.062-0.52-6.115-1.285-8.633-1.966l34.622,12.245C347.867,277.9,348.383,271.187,349.937,270.668z"/>
	<path fill="#537368" d="M397.873,198.504c1.016,1.261,1.227,1.907,1.897,2.719c0.671,0.813,0.825,2.497,0.825,2.497
		c0.631,1.935,1.877,3.065,3.865,6.708c1.15,3.291,3.217,7.775,4.574,9.485c2.301,1.268,1.884-0.451,1.674-1.096
		c-0.54-0.581-0.239-1.239-0.48-2.048c-0.546-2.38,1.154-5.109,1.062-6.032c-0.46-2.825-1.938-3.825-3.167-5.302
		c-1.224-1.904-1.484-2.368-1.208-4.478c0.279-2.11,0.138-3.282-0.217-4.671l-0.822-0.27c-0.469-1.537-1.414-3.325-1.414-3.325
		c-0.75-1.226-1.386-0.076-1.354,0.519c0.257,0.892,0.086,1.783,0.787,3.189c0.7,1.407-0.111,1.649-1.483,2.086
		c-2.794,0.107-2.982-3.022-3.012-3.616c-0.453-1.456-1.98-0.047-1.934,0.63c-0.408,1.879-0.305,1.087-0.161,1.831
		C397.448,198.073,397.873,198.504,397.873,198.504z"/>
	<path fill="#537368" d="M378.738,228.078c-4.457-11.249,1.072-15.745,2.181-17.101c1.109-1.357,0.321-1.89,0.192-2.551
		c0,0-2.969-3.539-3.579-4.335c-0.611-0.796-1.676,0.781-1.676,0.781c-5.192,13.341,0.432,21.165,2.043,23.596L378.738,228.078z"/>
	<path fill="#537368" d="M168.441,232.314c0.428,1.572,1.229,3.08,2.4,3.724c-2.263,0.724-3.613,4.542-8.835-0.028
		c0.86,3.154,2.056,4.313,3.297,4.422c-2.258,0.733-3.613,4.529-8.825-0.033c0.595,2.183,1.908,4.243,3.935,4.035
		c-2.243,0.75-3.607,4.506-8.803-0.041c0.989,3.625,3.951,6.919,8.89,0.029c1.322-0.176,2.941-1.309,4.86-3.983
		c2.372,0.148,4.886-3.485,5.52-4.378c1.532,0.812,3.689,0.149,6.472-3.747C175.042,232.974,173.722,236.935,168.441,232.314z"/>
	<path fill="#537368" d="M165.154,401.002c0.215-0.814,0.491-2.119,1.148-3.143C165.416,398.68,164.413,399.762,165.154,401.002z"/>
	<path fill="#537368" d="M39.195,311.42l106.242-31.719c-10.65-4.279-12.748-13.068-14.139-19.862
		c-1.525-7.433,2.593-13.574,8.382-19.875c8.118-8.837,34.307-15.033,33.925-26.087c-0.382-3.144-4.384-6.67-14.484-5.526
		c2.286-0.763,7.814-4.194,7.814-4.194s0.103-0.342,0.957-0.553l1.901-0.4c0,0-6.099-0.953-9.719-3.24
		c11.625-0.381,24.013-6.861,26.017-9.516c5.264,2.391,13.907,8.017,15.172,10.317c1.921,3.493,3.416,6.305,3.593,9.363
		c2.285-2.553,4.768-4.927,7.431-7.088L123.16,73.62c-3.896,1.825-8.242,2.85-12.828,2.85c-6.437,0-12.4-2.014-17.307-5.437
		c-50.822,44.335-82.941,109.568-82.941,182.308c0,14.034,1.21,27.782,3.504,41.161c2.586,0.137,5.197,0.605,7.778,1.443
		C29.479,298.582,35.713,304.322,39.195,311.42z M128.698,221.18c-27.465,15.713-50.973,24.326-64.79,24.327
		c-5.517,0-9.486-1.372-11.548-4.213c-4.558-6.277,1.686-17.667,17.579-32.07c0.593-0.538,1.511-0.493,2.048,0.101
		c0.538,0.593,0.493,1.51-0.101,2.048c-16.75,15.18-19.857,24.53-17.18,28.218c5.117,7.05,32.285,2.11,72.551-20.927
		c0.696-0.397,1.581-0.156,1.979,0.539C129.634,219.896,129.393,220.782,128.698,221.18z M151.945,197.381
		c-10.838,0.269-11.211-3.652-25.377-5.8c2.538,9.063,23.926,12.688,35.092,12.834c-5.353,1.55-9.443,1.206-12.252,2.392
		c-6.601,1.65-19.576-1.087-27.19-9.063c1.45,4.713,0,11.238,17.404,13.739c-4.886,1.158-11.445,2.907-13.648,2.72
		c-5.973-0.508-11.245-7.179-13.532-10.356c-1.981-1.882-4.828-5.106-11.562-5.17c-6.735-0.062-6.671,9.808-6.671,9.808
		s0.444-5.399,0.063,0.191c-0.382,5.592-4.256,5.146-6.416,5.336c-5.083,0.256-7.763-5.018-7.445-6.607c0,0-3.06-9.06-2.997-13.19
		c0,1.78,7.369,9.442,8.449,11.729l-0.198-1.144c-0.381-1.207-0.914-7.625-0.66-9.595c0,0,2.642,5.055,3.786,6.261
		c1.144,1.208,3.957-2.764,5.481-4.226c4.575-3.748,8.894-3.939,10.101-4.32s2.161-0.699,2.668-1.587
		c0.509-0.89,0.128-2.605,0.064-3.876s-0.953-1.207-0.953-1.207c-1.271-0.636-5.971,0.508-7.877,1.143
		c-1.906,0.636-2.795,0.953-5.655,0.255c-2.858-0.699-4.446-1.462-5.908-1.653c1.844,0.51,2.267,7.721,2.458,9.055
		c-1.462-1.84-6.432-6.704-7.321-6.958c-0.89-0.254-1.843,0.445-1.843,0.445s-1.108,2.605-1.934,2.477
		c-0.826-0.126-2.286-1.206-4.003-2.096c-3.15,5.153-4.663,7.951-4.999,8.235c0.636-1.207,0.219-11.502,2.57-12.39
		c0.093,0.249,0.043-0.828,0.288-2.427c-0.964,0.646-2.335,0.877-2.949,0.457c-0.762-0.524-1.762-2.238-1.571-2.858
		c0.189-0.62,0.047-2.383,4.05-1.858c0.512,0.442,0.912,0.923,1.17,1.408c0.964-2.747,2.991-5.704,7.351-6.576
		c7.623-1.525,17.915,5.336,22.49,4.573c3.048,0.381,3.81,3.432,8.004,3.432c11.436,5.717-2.668,10.291-0.763,10.291
		c1.907,0,7.624-1.143,9.911-1.905c6.727-2.305,9.864-5.549,12.769-5.984c11.436-0.382,10.354,8.361,24.268,8.265
		c11.245,0.191,20.495-0.614,23.925-2.9C174.783,194.844,166.524,197.064,151.945,197.381z M115.211,178.77
		c1.271-1.525,3.558-2.541,5.083-1.778c3.557,5.081-3.72,7.55-4.447,8.639C118.26,181.565,116.736,181.565,115.211,178.77z
		 M159.594,155.61c0.19-0.62,0.047-2.381,4.05-1.858c1.381,1.191,1.954,2.668,1.095,3.716c-0.856,1.049-2.811,1.525-3.572,1.001
		C160.404,157.945,159.403,156.229,159.594,155.61z M148.945,142.428c0.191-0.619,0.048-2.382,4.05-1.858
		c1.381,1.192,1.954,2.668,1.096,3.716c-0.858,1.048-2.811,1.526-3.573,1.002C149.756,144.763,148.754,143.047,148.945,142.428z
		 M153.784,146.409c-0.764,3.05-2.441,15.418-9.815,19.071c1.192,1.096,0.725,2.174,2.175,3.625c0,0,10.513,2.9,19.141-8.191
		c0.802-0.533,0.297-0.005,0.942-0.436c-2.541,10.61-7.065,14.208-20.025,14.302c12.195,7.159,29.017,5.971,40.834,0.634
		c-10.184,10.772-16.247,10.475-25.014,11.238c-11.436,0-12.051-5.556-20.817-5.938c-3.813-0.381-10.292,0-10.292,0
		c1.413-1.859,2.597-4.64,2.597-5.884l-0.617-2.774c0.509,1.971-5.27-11.36-18.498-3.031c3.558,5.845,0.508,8.64-5.59,8.64
		c-2.288-0.382-6.1,0.381-2.669-5.717c1.143-2.287-8.577,0.343-8.577-3.089c0-3.43,7.433-13.684,20.775-14.446
		c5.337,0,9.022,0.349,15.122,4.542C133.093,158.895,139.256,167.293,153.784,146.409z M142.044,139.668
		c0.304-0.32,0.591-0.623,0.869-0.9c0.566-0.567,1.484-0.567,2.051,0c0.566,0.566,0.566,1.484,0,2.05
		c-0.261,0.261-0.53,0.545-0.815,0.846c-3.086,3.255-8.249,8.698-23.419,8.002c-3.458,0.347-8.375-0.795-14.062-2.115
		c-6.144-1.426-13.107-3.04-18.998-2.846c-11.054-0.354-22.639,4.318-25.419,10.224l-0.143,0.24
		c-3.656,4.986-1.98,12.424,3.983,17.685c0.601,0.53,0.658,1.446,0.128,2.046c-0.287,0.325-0.687,0.491-1.088,0.491
		c-0.341,0-0.683-0.12-0.958-0.363c-7.073-6.239-8.946-15.241-4.485-21.462c3.369-6.897,15.878-12.166,27.982-11.759
		c6.172-0.208,13.335,1.454,19.653,2.919c5.263,1.221,10.232,2.373,13.203,2.045l0.114-0.013l0.115,0.005
		C134.691,147.427,139.115,142.758,142.044,139.668z M75.853,136.563l0.074-0.006l0.075,0.001
		c18.562,0.265,25.967,1.08,31.374,1.675c2.351,0.259,4.381,0.482,6.793,0.597c12.535-0.002,17.171-5.246,20.239-8.716l0.32-0.361
		c0.531-0.599,1.448-0.653,2.047-0.12c0.599,0.532,0.652,1.448,0.12,2.047l-0.314,0.355c-3.206,3.625-8.57,9.694-22.48,9.694
		c-2.571-0.121-4.643-0.349-7.042-0.612c-5.341-0.588-12.653-1.393-31.022-1.657c-16.269,1.466-25.246,8.905-25.287,20.955
		c0.052,0.46,0.069,0.959,0.086,1.484c0.106,3.163,0.267,7.942,9.005,12.16c0.721,0.348,1.023,1.215,0.675,1.936
		c-0.25,0.518-0.768,0.82-1.307,0.82c-0.211,0-0.426-0.046-0.629-0.145c-10.316-4.979-10.529-11.286-10.643-14.674
		c-0.017-0.491-0.029-0.934-0.077-1.317l-0.011-0.18C47.848,146.668,57.794,138.168,75.853,136.563z"/>
	<path fill="#537368" d="M169.3,362.195c0.203-0.697,0.231-0.797,0.205-1.453c-0.024-0.652-1.003-1.371-1.185-1.855
		c-0.623-0.828-1.41,0.021-1.596,0.291c-1.176,1.816-1.771,4.232-1.907,5.813c-2.19,17.17,4.966,26.701,5.406,27.043
		c2.247,0.439,1.583-0.619,0.919-1.674C165.259,382.389,167.673,365.93,169.3,362.195z"/>
	<path fill="#537368" d="M465.346,354.584c-5.025-6.916-6.69-15.246-5.318-23.049l-148.672-52.586
		c-9.273,20.852-29.323,35.834-53.084,37.879l0.457,50.764c5.152-8.721,13.068-13.225,18.967-14.861
		c-0.55-5.633,1.93-10.783,7.003-14.367c5.665-4.004,13.195-5.172,18.492-3.082c3.865-5.273,10.547-5.893,16.113-5.803l0.156,0.01
		c11.729,1.049,17.595,10.43,18.014,16.758l0.007,0.102l-0.003,0.102c-0.37,13.158-10.679,16.637-16.077,16.637
		c-7.183,0-8.97-4.311-9.396-6.881c-0.231-1.391,0.234-2.857,1.312-4.129c1.278-1.51,3.268-2.555,5.551-2.965
		c-0.155-1.705-0.904-2.375-4.432-2.6c-6.13,0.426-15.746,7.662-15.814,25.465c-0.101,26.643,16.438,33.947,34.323,37.873
		c1.165,0.254,1.902,1.406,1.646,2.572c-0.255,1.166-1.403,1.902-2.572,1.646c-18.714-4.107-37.829-12.32-37.718-42.107
		c0.08-20.883,12.319-29.342,20.015-29.77l0.123-0.006l0.124,0.006c8.686,0.514,8.672,5.352,8.663,8.551v2.494h-2.159
		c-1.8,0.002-3.415,0.557-4.32,1.486c-0.403,0.412-0.479,0.725-0.479,0.787c0.251,1.51,1.063,3.256,5.134,3.256
		c1.164,0,11.357-0.348,11.756-12.33c-0.301-3.656-4.18-11.719-14.005-12.639c-7.401-0.107-11.261,1.418-13.241,5.281l-1.08,2.107
		l-2-1.27c-3.729-2.369-10.746-1.484-15.639,1.975c-2.471,1.746-6.397,5.629-4.936,12.008l0.506,2.209l-2.23,0.398
		c-6.717,1.205-18.214,7.457-21.699,22.584l0.179,19.787c2.425,9.311,9.719,22.949,31.459,28.932c1.15,0.316,1.826,1.506,1.51,2.656
		c-0.264,0.957-1.134,1.586-2.082,1.586c-0.189,0-0.382-0.023-0.574-0.076c-16.488-4.539-25.395-13.191-30.208-21.521l0.576,63.984
		c4.581,0.721,9.066,2.498,13.075,5.41c4.827,3.508,8.307,8.178,10.35,13.344c82.167-10.578,151.411-62.393,186.326-134.02
		C467.953,357.811,466.578,356.281,465.346,354.584z M388.364,319.424c3.087,0,5.599,2.32,5.599,5.176
		c0,2.854-2.512,5.176-5.599,5.176s-5.599-2.322-5.599-5.176C382.766,321.744,385.277,319.424,388.364,319.424z M365.779,330.646
		c4.272,0,7.748,3.264,7.748,7.275c0,4.014-3.476,7.277-7.748,7.277s-7.748-3.264-7.748-7.277
		C358.031,333.91,361.507,330.646,365.779,330.646z M287.635,358.666c0.499-0.801,1.551-1.049,2.355-0.549
		c0.802,0.5,1.048,1.555,0.549,2.355c-3.39,5.449-6.911,14.127-4.442,24.535c3.001,12.648,13.981,24.84,32.636,36.236
		c0.806,0.492,1.06,1.545,0.567,2.35c-0.322,0.527-0.885,0.818-1.461,0.818c-0.304,0-0.611-0.08-0.89-0.25
		c-19.461-11.889-30.961-24.797-34.18-38.365C280.028,374.244,283.902,364.666,287.635,358.666z M271.064,395.727
		c-2.932-9.971-1.012-20.768,5.707-32.092c0.481-0.811,1.53-1.078,2.343-0.598c0.813,0.482,1.08,1.531,0.599,2.342
		c-6.214,10.475-8.02,20.359-5.367,29.383c3.326,11.314,13.72,21.402,30.893,29.982c0.845,0.422,1.188,1.449,0.765,2.295
		c-0.299,0.598-0.903,0.945-1.53,0.945c-0.257,0-0.518-0.059-0.764-0.182C285.653,418.781,274.67,407.988,271.064,395.727z
		 M338.274,451.957c-0.26,0.143-0.541,0.211-0.818,0.211c-0.605,0-1.191-0.322-1.502-0.891c-0.453-0.828-0.149-1.867,0.68-2.32
		c22.759-12.449,38.051-36.377,38.699-43.576c0.575-16.439-3.733-20.404-6.584-23.029c-0.524-0.482-1.02-0.938-1.465-1.434
		c-0.632-0.701-0.575-1.783,0.126-2.414c0.703-0.635,1.785-0.576,2.415,0.125c0.339,0.377,0.757,0.762,1.24,1.207
		c3.312,3.049,8.316,7.654,7.68,25.758C377.954,414.404,361.586,439.207,338.274,451.957z M367.513,444.563
		c-0.316,0.256-0.696,0.381-1.074,0.381c-0.498,0-0.992-0.217-1.33-0.635c-0.595-0.734-0.48-1.811,0.254-2.404
		c36.17-29.26,15.461-61.764,15.235-62.078c-0.55-0.768-0.373-1.836,0.396-2.387c0.766-0.549,1.836-0.373,2.386,0.396
		C383.623,378.176,406.083,413.363,367.513,444.563z M389.23,434.586c-0.338,0.408-0.825,0.617-1.315,0.617
		c-0.386,0-0.772-0.129-1.092-0.395c-0.727-0.604-0.826-1.682-0.222-2.408c9.102-10.949,17.472-28.59,5.651-50.457
		c-0.299-0.553-0.511-0.955-0.609-1.191c-0.367-0.869,0.041-1.873,0.911-2.238c0.87-0.367,1.872,0.041,2.239,0.91
		c0.075,0.178,0.242,0.477,0.468,0.893C407.99,403.865,399.008,422.826,389.23,434.586z M426.49,404.805l-0.003,0.729
		c0,0.846-0.686,1.531-1.53,1.531s-1.53-0.686-1.53-1.531l0.004-0.748c0.029-4.789,0.064-11.211-8.616-12.57
		c0.024,0.545,0.054,1.121,0.089,1.756c0.389,6.975,1.039,18.648-8.066,29.5c-0.767,0.914-2.128,1.033-3.043,0.266
		c-0.913-0.766-1.033-2.129-0.266-3.043c8.006-9.541,7.438-19.736,7.062-26.482c-0.069-1.246-0.135-2.424-0.135-3.443v-0.969
		l0.726-0.645c4.317-3.838,5.354-8.207,2.772-11.686c-2.359-3.182-7.446-4.852-11.872-2.137l-2.987,1.832l-0.294-3.492
		c-0.445-5.277-5.333-6.854-8.207-7.324c-5.898-0.965-12.348,1.16-13.812,4.545l-1.534,3.547l-2.218-3.166
		c-3.71-5.295-10.233-6.268-14.492-4.494c-4.021,1.676-5.823,5.426-4.944,10.291l0.586,3.248l-3.212-0.764
		c-6.465-1.537-11.396-1.16-14.654,1.117c-3.179,2.221-4.255,5.934-4.596,8.693c-0.222,7.135,2.817,10.727,9.289,10.977
		c2.69,0.098,5.357-0.717,6.775-2.092c0.391-0.379,0.854-0.973,0.849-1.65c-0.014-2.033-0.227-2.521-5.733-2.754l-2.137-0.092
		l0.069-2.137c0.122-3.746,1.935-9.982,12.785-9.637l0.178,0.014c3.968,0.453,7.201,2.277,9.609,5.422
		c3.921,5.115,4.541,12.445,4.001,16.174c-0.823,8.914-5.323,16.717-13.376,23.191c-18.618,14.971-50.872,18.662-59.248,18.662
		c-0.674,0-1.192-0.023-1.538-0.068c-1.183-0.15-2.021-1.23-1.87-2.414s1.229-2.021,2.415-1.871
		c2.371,0.311,37.883-1.873,57.534-17.676c7.122-5.727,11.088-12.547,11.786-20.273l0.016-0.127c0.362-2.418,0.07-8.77-3.148-12.971
		c-1.674-2.186-3.829-3.412-6.586-3.748c-5.292-0.146-7.204,1.457-7.889,3.375c3.737,0.332,7.415,1.461,7.452,6.898
		c0.014,1.744-0.733,3.398-2.161,4.783c-2.292,2.221-6,3.465-9.949,3.307c-8.872-0.344-13.77-6.006-13.437-15.535l0.014-0.178
		c0.432-3.646,1.896-8.654,6.422-11.816c3.756-2.625,8.87-3.416,15.222-2.365c0.008-5.455,2.841-9.898,7.815-11.971
		c5.115-2.133,12.607-1.395,17.742,3.688c3.701-3.908,10.798-5.357,16.672-4.396c5.694,0.932,9.697,3.951,11.202,8.295
		c5.815-2.025,11.883,0.408,14.931,4.516c2.545,3.43,3.574,9.014-0.665,14.586C426.563,391.795,426.519,400.41,426.49,404.805z
		 M432.723,376.172c-3.087,0-5.599-2.229-5.599-4.967c0-2.736,2.512-4.965,5.599-4.965s5.598,2.229,5.598,4.965
		C438.32,373.943,435.81,376.172,432.723,376.172z"/>
	<path fill="#537368" d="M122.357,368.063c0.054-0.629-0.663-0.838-0.916-1.301c-0.528-0.412-0.27-0.855-0.269-0.855
		c0.124-0.871,1.327-0.779,0.456-2.459c-0.283-0.697-1.01-1.199-1.54-0.938c-0.343,0.287-0.713,0.674-0.897-0.029
		c-0.185-0.701-0.39-0.891-0.39-0.891l-1.945-0.438c-0.906-0.002-0.705,1.09-0.228,1.23c1.379,1.049,0.766,0.709,0.473,1.271
		c-0.382,1.313-0.69,2.033-0.69,2.033c0.022,2.596,1.255,1.141,1.255,1.141c1.678,2.691,2.588,2.23,3.34,2.318
		c0.751,0.09,0.68,0.07,0.68,0.07C122.864,369.17,122.269,368.816,122.357,368.063z"/>
	<path fill="#537368" d="M219.79,423.547l0.103-0.439C219.893,423.107,217.631,422.168,219.79,423.547z"/>
	<path fill="#537368" d="M167.324,396.803c-0.422,0.262-0.752,0.635-1.022,1.057C166.765,397.432,167.194,397.074,167.324,396.803z"
		/>
	<path fill="#537368" d="M249.692,474.533l-0.469-52.016c-0.099,3.375-0.192,5.678-0.275,6.518
		c-4.398,1.141-9.918,0.287-10.646,0.605l-5.431-1.625l-1.84,0.76c0,0,0.293,1.219-2.045-0.756c-2.34-1.977-5.647-2.291-8.67-4.143
		c-0.201-0.123-0.374-0.232-0.527-0.33l-0.573,2.439c0.505,1.604,0.782,6.217,2.379,6.842c-4.083,1.242,0.421,5.789,0.421,5.789
		c3.012,4.115,2.688,4.668,1.031,7.586c2.514,5.264-2.402,6.586-3.391,7.756c-0.987,1.168-0.832,0.08-0.483,2.773
		c0.351,2.691,0.183,2.156-0.146,3.842c-1.726,3.707-2.466,2.357-3.281,2.932c-1.753,0.461-8.83-1.924-11.262-2.469
		c-2.835-0.824-3.843-0.146-6.28,0.441c-1.666,0.162-2.151-0.951-3.619-2.027c-1.468-1.074-2.147-2.082-2.147-2.082
		c-0.634-1.154-2.195-0.799-3.606-0.4c1.316-2.855,2.716-0.99,3.892-1.135c0.391-1.344,2.89-1.588,5.837-1.701
		c2.948-0.113,7.137-1.16,8.013-1.391l-0.288-2.35c-0.287-2.352-1.769-5.047-2.384-5.713c-0.616-0.664-2.695-3.535-3.118-4.307
		c-0.827-1.051-1.685-0.328-2.325-0.352c-0.64-0.027-0.81-0.561-0.81-0.561c-0.441-1.262-2.178-4.195-2.813-5.352
		c-1.3-0.541-2.065-1.248-2.065-1.248c-2.676-3.045-3.088-6.08-3.867-8.41l-4.285-1.408l-1.329,1.232
		c-2.166,6.33-5.124,8.707-5.794,10.455c-1.162,1.766-1.287,1.082-1.287,1.082s0.025-0.641,0.453-1.002
		c-0.393-2.541-2.156,0.18-2.156,0.18c-2.889,5.477-8.552,6.58-9.838,7.662c-1.287,1.084-4.698,4.461-4.698,4.461
		s-1.412,0.4-2.35,0.289c-0.939-0.113-1.262,0.441-2.033,0.865s-2.573,2.166-3.412,3.379c-3.851,6-6.325,5.605-8.824,5.848
		c-3.631,0.24-8.456,0.131-10.372-1.074c0.964-0.529,1.05-0.826,1.523-1.338c0.608-2.09-1.01-3.209-2.565-3.982
		c-3.389-1.15-3.034,0.412-4.407,1.793c0.21-3.5-3.291-3.709-5.574-4.213c1.075-1.467-1.6-4.512-4.231-3.82
		c0.584-1.449,0.907-2.002-1.033-2.568c-0.746-0.217,0.131-0.445,0.665-0.615c0,0,2.157-0.184,3.736-0.045
		c1.73,0.178,9.092,1.023,9.092,1.023c3.587-0.086,4.041-1.088,4.493-2.09c2.319-2.402,5.556-5.182,6.606-6.01
		c4.326-2.627,11.239-5.797,13.978-7.428c3.173-13.51,14.714-24.697,13.837-26.408c0,0-0.925,1.512-1.976,2.34
		c-1.05,0.826-0.405-0.281-0.405-0.281c-1.045-0.303-0.615-0.664-1.231-1.33c-0.14-0.15-0.245-0.299-0.333-0.445
		c-0.068,0.26-0.133,0.484-0.201,0.613c0,0-0.897-0.26-2.091-0.607c-1.194-0.348-0.745-0.217-1.617-1.117
		c-0.871-0.902-2.344-0.844-2.967-0.377c-0.62,0.467-1.242,0.934-2.026-0.268c-0.992-1.516-1.555-0.775-2.263-0.01l-0.771,0.424
		c0,0-1.237-0.197-1.275-1.182c-1.536-0.285-2.467,2.359-2.977,1.887l-0.424-0.77c-1.885-2.979-2.754,0.008-3.593,1.219
		c-5.15-3.441-5.923,2-6.931,2.678c0,0-1.362-0.881-2.382-1.826c-0.665-0.615-1.099,2.109-2.173,3.576
		c-0.587-2.436-2.234-1.781-2.234-1.781c-0.689,1.256-1.565,1.486-2.337,1.908c0.763-3.176-1.65-3.23-3.273-3.217l-1.361-0.883
		c-0.816-3.314-1.511-0.926-2.624-0.439c-1.113,0.486-4.085,1.24-5.925,2c0,0,1.021,0.945-0.279,0.404
		c-1.3-0.541-1.667,0.162-1.715,1.443c-0.049,1.279-0.28,0.404-0.28,0.404s-0.163-1.668-1.81-1.012
		c-1.647,0.654-2.455,0.094-2.455,0.094c-0.38-0.92-0.337-1.068-1.381-1.373c-1.046-0.305-1.051,0.826-1.05,0.826
		c-0.742-1.348-1.551-1.906-1.824-2.633c-0.274-0.727,0.14-1.039,0.14-1.039s0.866,0.361,0.231-0.795
		c-0.634-1.156-0.306-2.842,0.117-2.072c0.424,0.771,0.443,1.264,1.998,2.037l1.112-0.484c0,0-1.327-3.785-0.374-2.051
		c0.953,1.734,1.977,1.545,3.49,2.473c6.862-1.889,7.554-8.162,7.243-9.873c-0.312-1.709-0.481-2.242-1.444-1.715
		c-4.731,2.725-12.733,1.477-15.27,0.738l-1.446,3.301l-1.259-4.574c-3.471-1.982-2.084-1.74-3.808-3.051
		c-1.722-1.311-1.834-0.371-2.816-0.334c-0.983,0.037-1.406-0.732-1.574-1.268c-0.168-0.533-1.016-2.076-1.016-2.076
		s-0.316-0.578,0.199-1.236c0.516-0.66,1.032-1.318,2.206-1.463c2.499-0.244,3.127-1.842,3.599-2.352
		c2.511-2.51,10.69-7.252,13.966-9.051c0.496-1.15,0.564-1.939,0.333-2.818c-0.23-0.875-0.635-1.156-0.374-2.049
		c0.26-0.896,1.423-1.369,1.423-1.369c4.486-4.197,3.232-7.395,9.509-11.91c-2.38-2.203-0.185-3.721,0.676-5.199l3.044-4.617
		c3.902,1.055,4.494,1.828,3.116,4.871c-0.227,0.502,1.272,1.748,1.757,0.916c2.589-4.438,7.205-0.627,6.872-3.125
		c-1.188-8.898,9.042-9.564,9.042-9.564c2.646,4.816,5.376,5.449,5.524,8l9.886-3.842l1.332,2.008l1.537-2.225l3.332,1.158
		l1.094-2.271l1.18,3.365l2.915-2.605l1.361,1.26l2.649-6.137c-0.579,1.99,4.197,3.379,6.831,0.26
		c1.556-3.863,5.832-5.209,8.518-7.018l-0.363,4.213c0.695-2.389,4.061-3.568,6.332-2.477c1.607-2.555,3.945-3.17,6.499-1.563
		c1.447,0.91,2.635-3.119,4.691-4.248l5.289,1.107l3.032-3.002l4.66,1.789l3.148-3.402l2.207,2.801l5.868-0.883l0.666,3.646
		l3.93-0.15l10.607,2.674l-0.061-6.777c-25.376-1.729-46.692-18.197-55.462-40.92L42.064,321c0.538,4.279,0.171,8.742-1.25,13.115
		c-2.05,6.311-5.979,11.482-10.961,15.109c33.926,78.469,108.208,135.408,196.692,144.639c0.941-2.545,2.235-5.01,3.909-7.313
		C235.257,479.939,242.234,475.852,249.692,474.533z M110.989,396.061c1.644-1.572,2.133-2.51,2.558-5.084
		c0.132-0.826,0.434-1.492,0.932-1.35c0.497,0.146,1.04-0.236,1.409-0.02c0.369,0.215,2.042,1.959-0.391,4.311
		c-0.601,0.58-2.643,2.037-3.671,2.602C111.826,396.52,110.757,396.855,110.989,396.061z"/>
	<path fill="#537368" d="M145.039,340.813c0.37-1.52,0.27-0.75,0.974-2.834c-0.094-0.623-0.787-1.32-1.409-1.229
		c-0.622,0.096-2.895,0.848-3.309,2.707c-0.414,1.863,0.453,1.889,1.144,3.283c0.692,1.396,1.122,0.754,0.466,1.801
		c-0.659,1.049-0.99,0.918-0.865,1.98c0.124,1.061,0.006,1.307,1.02,2.221c1.014,0.914,1.025,0.828,1.442,0.969
		s1.68,0.477,0.926-1.1c-0.754-1.578-0.575-0.945-1.142-1.279c-0.566-0.336-0.527-1.982,0.254-1.969
		c0.782,0.012,0.513,0.064,1.263,0.336c0.748,0.271,1.843-0.111,1.268-1.057C146.247,344.277,144.834,343.746,145.039,340.813z"/>
	<path fill="#537368" d="M207.771,389.469c-1.901,1.715-4.799,6.48-5.201,7.121c-0.402,0.639-0.538,2.219-0.26,3.486
		c-0.097,2.563,1.452,6.143,1.958,7.369c0.506,1.225-1.08,2.6-1.08,2.6c-0.7,0.551-4.802,3.891-5.859,4.555
		c-2.572,2.164-7.879,7.42-9.719,8.18l1.261,1.23c0,0,3.257-2.291,4.632-4.049c1.4-1.789,5.389-4.799,6.988-5.846
		c1.6-1.045,4.342-3.053,5.532-4.541c1.189-1.49,0.989-1.547,0.989-1.547c0.438-2.248-2.5-6.988-2.708-8.127
		s-0.565-1.027,0.227-2.633c0.79-1.605,4.546-7.094,4.546-7.094C209.33,388.195,208.127,389.357,207.771,389.469z"/>
	<path fill="#537368" d="M173.902,370.117l-0.103,0.727c-2.577,8.855-1.102,13.061-0.102,15.186c1.664,3.184,1.961,0.68,1.795-0.23
		c-2.657-6.82,0.778-13.807,1.411-15.24C176.487,368.279,174.146,369.648,173.902,370.117z"/>
</g>
</svg>
